<svg xmlns="http://www.w3.org/2000/svg" width="900" height="640" fill="none" viewBox="0 0 900 640"><title>AI guardrails illustration</title><rect width="900" height="640" fill="#091615" rx="28"/><rect width="636" height="416" x="132" y="112" fill="#102C28" stroke="#78F4E4" stroke-width="4" rx="28"/><path fill="#F7FFFB" d="M450 156L626 242V340C626 428 558 486 450 514C342 486 274 428 274 340V242L450 156Z"/><path fill="#DFF6EF" d="M450 202L580 266V340C580 405 529 450 450 474C371 450 320 405 320 340V266L450 202Z"/><path stroke="#006D70" stroke-linecap="round" stroke-linejoin="round" stroke-width="22" d="M396 346L432 382L512 290"/><rect width="192" height="76" x="160" y="174" fill="#FFF3D5" rx="16"/><rect width="120" height="14" x="196" y="204" fill="#7B5300" rx="7"/><rect width="192" height="76" x="548" y="174" fill="#FBE7E2" rx="16"/><rect width="120" height="14" x="584" y="204" fill="#8F2D2D" rx="7"/><rect width="174" height="74" x="170" y="402" fill="#DFF6EF" rx="16"/><rect width="106" height="14" x="204" y="432" fill="#006D70" rx="7"/><rect width="174" height="74" x="556" y="402" fill="#E8F5F1" rx="16"/><rect width="106" height="14" x="590" y="432" fill="#4C6760" rx="7"/><path stroke="#FFB14A" stroke-dasharray="12 14" stroke-linecap="round" stroke-width="8" d="M352 214C384 220 408 232 424 252"/><path stroke="#FF9B86" stroke-dasharray="12 14" stroke-linecap="round" stroke-width="8" d="M548 214C516 220 492 232 476 252"/><path stroke="#78F4E4" stroke-dasharray="12 14" stroke-linecap="round" stroke-width="8" d="M344 438C382 426 410 410 430 384"/><path stroke="#B5D7CF" stroke-dasharray="12 14" stroke-linecap="round" stroke-width="8" d="M556 438C518 426 490 410 470 384"/></svg>