<svg width="900" height="640" viewBox="0 0 900 640" fill="none" xmlns="http://www.w3.org/2000/svg">
  <title>AI guardrails illustration</title>
  <rect width="900" height="640" rx="28" fill="#091615"/>
  <rect x="132" y="112" width="636" height="416" rx="28" fill="#102C28" stroke="#78F4E4" stroke-width="4"/>
  <path d="M450 156L626 242V340C626 428 558 486 450 514C342 486 274 428 274 340V242L450 156Z" fill="#F7FFFB"/>
  <path d="M450 202L580 266V340C580 405 529 450 450 474C371 450 320 405 320 340V266L450 202Z" fill="#DFF6EF"/>
  <path d="M396 346L432 382L512 290" stroke="#006D70" stroke-width="22" stroke-linecap="round" stroke-linejoin="round"/>
  <rect x="160" y="174" width="192" height="76" rx="16" fill="#FFF3D5"/>
  <rect x="196" y="204" width="120" height="14" rx="7" fill="#7B5300"/>
  <rect x="548" y="174" width="192" height="76" rx="16" fill="#FBE7E2"/>
  <rect x="584" y="204" width="120" height="14" rx="7" fill="#8F2D2D"/>
  <rect x="170" y="402" width="174" height="74" rx="16" fill="#DFF6EF"/>
  <rect x="204" y="432" width="106" height="14" rx="7" fill="#006D70"/>
  <rect x="556" y="402" width="174" height="74" rx="16" fill="#E8F5F1"/>
  <rect x="590" y="432" width="106" height="14" rx="7" fill="#4C6760"/>
  <path d="M352 214C384 220 408 232 424 252" stroke="#FFB14A" stroke-width="8" stroke-linecap="round" stroke-dasharray="12 14"/>
  <path d="M548 214C516 220 492 232 476 252" stroke="#FF9B86" stroke-width="8" stroke-linecap="round" stroke-dasharray="12 14"/>
  <path d="M344 438C382 426 410 410 430 384" stroke="#78F4E4" stroke-width="8" stroke-linecap="round" stroke-dasharray="12 14"/>
  <path d="M556 438C518 426 490 410 470 384" stroke="#B5D7CF" stroke-width="8" stroke-linecap="round" stroke-dasharray="12 14"/>
</svg>
