<svg xmlns="http://www.w3.org/2000/svg" width="900" height="640" fill="none" viewBox="0 0 900 640"><title>Local business system illustration</title><rect width="900" height="640" fill="#08201D" rx="28"/><rect width="768" height="500" x="66" y="70" fill="#F5FFFA" rx="28"/><rect width="768" height="74" x="66" y="70" fill="#DDEFEA" rx="28"/><circle cx="112" cy="108" r="10" fill="#C94A3E"/><circle cx="146" cy="108" r="10" fill="#D49A22"/><circle cx="180" cy="108" r="10" fill="#006D70"/><rect width="250" height="40" x="118" y="190" fill="#006D70" rx="12"/><rect width="324" height="18" x="118" y="252" fill="#526B65" rx="9"/><rect width="274" height="18" x="118" y="288" fill="#8BA09B" rx="9"/><rect width="164" height="54" x="118" y="346" fill="#C94A3E" rx="14"/><rect width="250" height="72" x="118" y="426" fill="#E5F4EF" rx="18"/><rect width="252" height="310" x="466" y="190" fill="#102D29" rx="22"/><path stroke="#78F4E4" stroke-linecap="round" stroke-width="18" d="M514 250H670"/><path stroke="#F3B242" stroke-linecap="round" stroke-width="16" d="M514 304H628"/><path stroke="#BBD4CE" stroke-linecap="round" stroke-width="14" d="M514 358H678"/><rect width="130" height="44" x="514" y="416" fill="#78F4E4" rx="12"/><path stroke="#006D70" stroke-dasharray="16 18" stroke-linecap="round" stroke-width="10" d="M334 373C424 336 434 303 466 264"/><path stroke="#C94A3E" stroke-dasharray="16 18" stroke-linecap="round" stroke-width="10" d="M718 345C777 353 803 388 803 438C803 492 766 526 704 526"/><circle cx="334" cy="373" r="18" fill="#006D70"/><circle cx="466" cy="264" r="18" fill="#006D70"/><circle cx="704" cy="526" r="18" fill="#C94A3E"/><circle cx="718" cy="345" r="18" fill="#C94A3E"/></svg>