<svg xmlns="http://www.w3.org/2000/svg" width="900" height="640" fill="none" viewBox="0 0 900 640"><title>Notes map illustration</title><rect width="900" height="640" fill="#071311" rx="28"/><circle cx="450" cy="320" r="116" fill="#11342F" stroke="#78F4E4" stroke-width="5"/><circle cx="450" cy="320" r="42" fill="#78F4E4"/><path stroke="#78F4E4" stroke-linecap="round" stroke-width="10" d="M450 204V110"/><path stroke="#78F4E4" stroke-linecap="round" stroke-width="10" d="M450 436V530"/><path stroke="#FFB14A" stroke-linecap="round" stroke-width="10" d="M334 320H210"/><path stroke="#FF9B86" stroke-linecap="round" stroke-width="10" d="M566 320H690"/><path stroke="#B5D7CF" stroke-linecap="round" stroke-width="9" d="M371 241L272 148"/><path stroke="#B5D7CF" stroke-linecap="round" stroke-width="9" d="M529 399L632 498"/><rect width="236" height="86" x="332" y="70" fill="#F7FFFB" rx="16"/><rect width="170" height="15" x="365" y="103" fill="#006D70" rx="8"/><rect width="170" height="92" x="125" y="274" fill="#FFF3D5" rx="16"/><rect width="104" height="14" x="158" y="308" fill="#7B5300" rx="7"/><rect width="170" height="92" x="605" y="274" fill="#FBE7E2" rx="16"/><rect width="104" height="14" x="638" y="308" fill="#8F2D2D" rx="7"/><rect width="224" height="92" x="338" y="486" fill="#DFF6EF" rx="16"/><rect width="156" height="14" x="372" y="522" fill="#006D70" rx="7"/><rect width="172" height="84" x="186" y="104" fill="#E8F5F1" rx="16"/><rect width="104" height="14" x="220" y="136" fill="#4C6760" rx="7"/><rect width="176" height="86" x="562" y="458" fill="#E8F5F1" rx="16"/><rect width="108" height="14" x="596" y="492" fill="#4C6760" rx="7"/></svg>