<svg width="900" height="640" viewBox="0 0 900 640" fill="none" xmlns="http://www.w3.org/2000/svg">
  <title>Notes map illustration</title>
  <rect width="900" height="640" rx="28" fill="#071311"/>
  <circle cx="450" cy="320" r="116" fill="#11342F" stroke="#78F4E4" stroke-width="5"/>
  <circle cx="450" cy="320" r="42" fill="#78F4E4"/>
  <path d="M450 204V110" stroke="#78F4E4" stroke-width="10" stroke-linecap="round"/>
  <path d="M450 436V530" stroke="#78F4E4" stroke-width="10" stroke-linecap="round"/>
  <path d="M334 320H210" stroke="#FFB14A" stroke-width="10" stroke-linecap="round"/>
  <path d="M566 320H690" stroke="#FF9B86" stroke-width="10" stroke-linecap="round"/>
  <path d="M371 241L272 148" stroke="#B5D7CF" stroke-width="9" stroke-linecap="round"/>
  <path d="M529 399L632 498" stroke="#B5D7CF" stroke-width="9" stroke-linecap="round"/>
  <rect x="332" y="70" width="236" height="86" rx="16" fill="#F7FFFB"/>
  <rect x="365" y="103" width="170" height="15" rx="8" fill="#006D70"/>
  <rect x="125" y="274" width="170" height="92" rx="16" fill="#FFF3D5"/>
  <rect x="158" y="308" width="104" height="14" rx="7" fill="#7B5300"/>
  <rect x="605" y="274" width="170" height="92" rx="16" fill="#FBE7E2"/>
  <rect x="638" y="308" width="104" height="14" rx="7" fill="#8F2D2D"/>
  <rect x="338" y="486" width="224" height="92" rx="16" fill="#DFF6EF"/>
  <rect x="372" y="522" width="156" height="14" rx="7" fill="#006D70"/>
  <rect x="186" y="104" width="172" height="84" rx="16" fill="#E8F5F1"/>
  <rect x="220" y="136" width="104" height="14" rx="7" fill="#4C6760"/>
  <rect x="562" y="458" width="176" height="86" rx="16" fill="#E8F5F1"/>
  <rect x="596" y="492" width="108" height="14" rx="7" fill="#4C6760"/>
</svg>
