<svg xmlns="http://www.w3.org/2000/svg" width="1200" height="820" fill="none" viewBox="0 0 1200 820"><title>Portfolio workbench illustration</title><style>@keyframes floatCard{0%{transform:translateY(0)}50%{transform:translateY(-10px)}}.flow{animation:dash 7s linear infinite}.float{animation:floatCard 6s ease-in-out infinite;transform-box:fill-box;transform-origin:center}@media (prefers-reduced-motion:reduce){.float,.flow{animation:none}}</style><rect width="1200" height="820" fill="#071311" rx="40"/><path fill="#0E2724" d="M0 133C150 82 268 70 413 114C573 162 707 154 849 86C1003 12 1114 39 1200 82V820H0V133Z"/><path fill="#103B35" d="M110 641C265 554 379 549 518 602C668 659 770 654 906 569C1032 490 1137 495 1200 526V820H0V708C33 688 68 664 110 641Z"/><g opacity=".5"><path stroke="#315B55" stroke-width="2" d="M82 164H1118"/><path stroke="#315B55" stroke-width="2" d="M82 288H1118"/><path stroke="#315B55" stroke-width="2" d="M82 412H1118"/><path stroke="#315B55" stroke-width="2" d="M82 536H1118"/><path stroke="#315B55" stroke-width="2" d="M208 84V724"/><path stroke="#315B55" stroke-width="2" d="M392 84V724"/><path stroke="#315B55" stroke-width="2" d="M576 84V724"/><path stroke="#315B55" stroke-width="2" d="M760 84V724"/><path stroke="#315B55" stroke-width="2" d="M944 84V724"/></g><g class="float"><rect width="354" height="224" x="140" y="120" fill="#F7FFFB" rx="22"/><rect width="354" height="48" x="140" y="120" fill="#E3F4EF" rx="22"/><circle cx="170" cy="145" r="7" fill="#C94A3E"/><circle cx="194" cy="145" r="7" fill="#D49A22"/><circle cx="218" cy="145" r="7" fill="#006D70"/><rect width="196" height="16" x="175" y="199" fill="#006D70" rx="8"/><rect width="268" height="12" x="175" y="231" fill="#7C9690" rx="6"/><rect width="224" height="12" x="175" y="259" fill="#A4B9B3" rx="6"/><rect width="146" height="12" x="175" y="287" fill="#C94A3E" rx="6"/></g><g><rect width="396" height="260" x="430" y="276" fill="#102C28" stroke="#78F4E4" stroke-width="4" rx="24"/><rect width="328" height="168" x="464" y="312" fill="#061311" rx="14"/><path stroke="#78F4E4" stroke-linecap="round" stroke-linejoin="round" stroke-width="14" d="M502 360L548 403L502 446"/><path stroke="#FFB14A" stroke-linecap="round" stroke-width="14" d="M598 448H712"/><path stroke="#78F4E4" stroke-linecap="round" stroke-width="22" d="M516 560H744"/><path stroke="#FF9B86" stroke-linecap="round" stroke-width="22" d="M796 560H826"/></g><g class="float" style="animation-delay:-1.2s"><rect width="248" height="174" x="814" y="110" fill="#FFF4D8" rx="20"/><path stroke="#7B5300" stroke-linecap="round" stroke-width="13" d="M850 164H998"/><path stroke="#A36D00" stroke-linecap="round" stroke-width="11" d="M850 202H1016"/><path stroke="#006D70" stroke-linecap="round" stroke-width="11" d="M850 238H946"/><circle cx="1016" cy="150" r="16" fill="#C94A3E"/></g><g class="float" style="animation-delay:-2.4s"><rect width="276" height="182" x="792" y="498" fill="#F1FFFB" rx="20"/><rect width="78" height="78" x="826" y="534" fill="#D7F4EC" rx="14"/><path stroke="#006D70" stroke-linecap="round" stroke-width="10" d="M850 575H880"/><path stroke="#133A35" stroke-linecap="round" stroke-width="12" d="M934 546H1028"/><path stroke="#6A7F79" stroke-linecap="round" stroke-width="10" d="M934 584H1010"/><path stroke="#C94A3E" stroke-linecap="round" stroke-width="10" d="M934 622H986"/></g><path stroke="#78F4E4" stroke-dasharray="18 18" stroke-dashoffset="0" stroke-linecap="round" stroke-width="8" d="M494 222C562 188 652 185 724 220C779 247 804 278 826 322" class="flow"/><path stroke="#FFB14A" stroke-dasharray="18 18" stroke-dashoffset="0" stroke-linecap="round" stroke-width="8" d="M782 582C706 642 573 651 484 582C439 547 424 516 418 470" class="flow"/><circle cx="430" cy="276" r="13" fill="#78F4E4"/><circle cx="826" cy="322" r="13" fill="#78F4E4"/><circle cx="782" cy="582" r="13" fill="#FFB14A"/><circle cx="418" cy="470" r="13" fill="#FFB14A"/></svg>