<svg width="1200" height="820" viewBox="0 0 1200 820" fill="none" xmlns="http://www.w3.org/2000/svg">
  <title>Portfolio workbench illustration</title>
  <style>
    @keyframes dash {
      to {
        stroke-dashoffset: -120;
      }
    }

    @keyframes floatCard {
      0%,
      100% {
        transform: translateY(0);
      }
      50% {
        transform: translateY(-10px);
      }
    }

    .flow {
      animation: dash 7s linear infinite;
    }

    .float {
      animation: floatCard 6s ease-in-out infinite;
      transform-box: fill-box;
      transform-origin: center;
    }

    @media (prefers-reduced-motion: reduce) {
      .flow,
      .float {
        animation: none;
      }
    }
  </style>
  <rect width="1200" height="820" rx="40" fill="#071311"/>
  <path d="M0 133C150 82 268 70 413 114C573 162 707 154 849 86C1003 12 1114 39 1200 82V820H0V133Z" fill="#0E2724"/>
  <path d="M110 641C265 554 379 549 518 602C668 659 770 654 906 569C1032 490 1137 495 1200 526V820H0V708C33 688 68 664 110 641Z" fill="#103B35"/>
  <g opacity=".5">
    <path d="M82 164H1118" stroke="#315B55" stroke-width="2"/>
    <path d="M82 288H1118" stroke="#315B55" stroke-width="2"/>
    <path d="M82 412H1118" stroke="#315B55" stroke-width="2"/>
    <path d="M82 536H1118" stroke="#315B55" stroke-width="2"/>
    <path d="M208 84V724" stroke="#315B55" stroke-width="2"/>
    <path d="M392 84V724" stroke="#315B55" stroke-width="2"/>
    <path d="M576 84V724" stroke="#315B55" stroke-width="2"/>
    <path d="M760 84V724" stroke="#315B55" stroke-width="2"/>
    <path d="M944 84V724" stroke="#315B55" stroke-width="2"/>
  </g>

  <g class="float">
    <rect x="140" y="120" width="354" height="224" rx="22" fill="#F7FFFB"/>
    <rect x="140" y="120" width="354" height="48" rx="22" fill="#E3F4EF"/>
    <circle cx="170" cy="145" r="7" fill="#C94A3E"/>
    <circle cx="194" cy="145" r="7" fill="#D49A22"/>
    <circle cx="218" cy="145" r="7" fill="#006D70"/>
    <rect x="175" y="199" width="196" height="16" rx="8" fill="#006D70"/>
    <rect x="175" y="231" width="268" height="12" rx="6" fill="#7C9690"/>
    <rect x="175" y="259" width="224" height="12" rx="6" fill="#A4B9B3"/>
    <rect x="175" y="287" width="146" height="12" rx="6" fill="#C94A3E"/>
  </g>

  <g>
    <rect x="430" y="276" width="396" height="260" rx="24" fill="#102C28" stroke="#78F4E4" stroke-width="4"/>
    <rect x="464" y="312" width="328" height="168" rx="14" fill="#061311"/>
    <path d="M502 360L548 403L502 446" stroke="#78F4E4" stroke-width="14" stroke-linecap="round" stroke-linejoin="round"/>
    <path d="M598 448H712" stroke="#FFB14A" stroke-width="14" stroke-linecap="round"/>
    <path d="M516 560H744" stroke="#78F4E4" stroke-width="22" stroke-linecap="round"/>
    <path d="M796 560H826" stroke="#FF9B86" stroke-width="22" stroke-linecap="round"/>
  </g>

  <g class="float" style="animation-delay: -1.2s">
    <rect x="814" y="110" width="248" height="174" rx="20" fill="#FFF4D8"/>
    <path d="M850 164H998" stroke="#7B5300" stroke-width="13" stroke-linecap="round"/>
    <path d="M850 202H1016" stroke="#A36D00" stroke-width="11" stroke-linecap="round"/>
    <path d="M850 238H946" stroke="#006D70" stroke-width="11" stroke-linecap="round"/>
    <circle cx="1016" cy="150" r="16" fill="#C94A3E"/>
  </g>

  <g class="float" style="animation-delay: -2.4s">
    <rect x="792" y="498" width="276" height="182" rx="20" fill="#F1FFFB"/>
    <rect x="826" y="534" width="78" height="78" rx="14" fill="#D7F4EC"/>
    <path d="M850 575H880" stroke="#006D70" stroke-width="10" stroke-linecap="round"/>
    <path d="M934 546H1028" stroke="#133A35" stroke-width="12" stroke-linecap="round"/>
    <path d="M934 584H1010" stroke="#6A7F79" stroke-width="10" stroke-linecap="round"/>
    <path d="M934 622H986" stroke="#C94A3E" stroke-width="10" stroke-linecap="round"/>
  </g>

  <path class="flow" d="M494 222C562 188 652 185 724 220C779 247 804 278 826 322" stroke="#78F4E4" stroke-width="8" stroke-linecap="round" stroke-dasharray="18 18" stroke-dashoffset="0"/>
  <path class="flow" d="M782 582C706 642 573 651 484 582C439 547 424 516 418 470" stroke="#FFB14A" stroke-width="8" stroke-linecap="round" stroke-dasharray="18 18" stroke-dashoffset="0"/>
  <circle cx="430" cy="276" r="13" fill="#78F4E4"/>
  <circle cx="826" cy="322" r="13" fill="#78F4E4"/>
  <circle cx="782" cy="582" r="13" fill="#FFB14A"/>
  <circle cx="418" cy="470" r="13" fill="#FFB14A"/>
</svg>
