<svg xmlns="http://www.w3.org/2000/svg" width="900" height="640" fill="none" viewBox="0 0 900 640"><title>Project board illustration</title><rect width="900" height="640" fill="#0B1716" rx="28"/><path stroke="#355852" stroke-width="2" d="M86 124H814"/><path stroke="#355852" stroke-width="2" d="M86 270H814"/><path stroke="#355852" stroke-width="2" d="M86 416H814"/><path stroke="#355852" stroke-width="2" d="M242 74V566"/><path stroke="#355852" stroke-width="2" d="M450 74V566"/><path stroke="#355852" stroke-width="2" d="M658 74V566"/><rect width="240" height="146" x="116" y="98" fill="#F7FFFB" rx="18"/><rect width="126" height="16" x="146" y="132" fill="#006D70" rx="8"/><rect width="172" height="12" x="146" y="170" fill="#5D756F" rx="6"/><rect width="124" height="12" x="146" y="198" fill="#9EB3AD" rx="6"/><rect width="228" height="180" x="392" y="120" fill="#FFF3D5" rx="18"/><path stroke="#7B5300" stroke-linecap="round" stroke-width="14" d="M426 164H550"/><path stroke="#A86D00" stroke-linecap="round" stroke-width="12" d="M426 205H584"/><path stroke="#006D70" stroke-linecap="round" stroke-width="12" d="M426 244H520"/><rect width="196" height="180" x="590" y="336" fill="#FBE7E2" rx="18"/><path stroke="#8F2D2D" stroke-linecap="round" stroke-width="14" d="M626 386H734"/><path stroke="#775A55" stroke-linecap="round" stroke-width="12" d="M626 428H742"/><path stroke="#006D70" stroke-linecap="round" stroke-width="12" d="M626 466H696"/><rect width="300" height="156" x="144" y="360" fill="#DFF6EF" rx="18"/><path stroke="#006D70" stroke-linecap="round" stroke-width="14" d="M184 412H286"/><path stroke="#44655E" stroke-linecap="round" stroke-width="12" d="M184 454H384"/><circle cx="424" cy="398" r="22" fill="#006D70"/><path stroke="#78F4E4" stroke-dasharray="15 16" stroke-linecap="round" stroke-width="9" d="M356 244C398 268 418 300 424 376"/><path stroke="#FFB14A" stroke-dasharray="15 16" stroke-linecap="round" stroke-width="9" d="M620 214C683 238 716 279 704 342"/><circle cx="356" cy="244" r="16" fill="#78F4E4"/><circle cx="620" cy="214" r="16" fill="#FFB14A"/><circle cx="704" cy="342" r="16" fill="#FFB14A"/></svg>