<svg width="900" height="640" viewBox="0 0 900 640" fill="none" xmlns="http://www.w3.org/2000/svg">
  <title>Project board illustration</title>
  <rect width="900" height="640" rx="28" fill="#0B1716"/>
  <path d="M86 124H814" stroke="#355852" stroke-width="2"/>
  <path d="M86 270H814" stroke="#355852" stroke-width="2"/>
  <path d="M86 416H814" stroke="#355852" stroke-width="2"/>
  <path d="M242 74V566" stroke="#355852" stroke-width="2"/>
  <path d="M450 74V566" stroke="#355852" stroke-width="2"/>
  <path d="M658 74V566" stroke="#355852" stroke-width="2"/>
  <rect x="116" y="98" width="240" height="146" rx="18" fill="#F7FFFB"/>
  <rect x="146" y="132" width="126" height="16" rx="8" fill="#006D70"/>
  <rect x="146" y="170" width="172" height="12" rx="6" fill="#5D756F"/>
  <rect x="146" y="198" width="124" height="12" rx="6" fill="#9EB3AD"/>
  <rect x="392" y="120" width="228" height="180" rx="18" fill="#FFF3D5"/>
  <path d="M426 164H550" stroke="#7B5300" stroke-width="14" stroke-linecap="round"/>
  <path d="M426 205H584" stroke="#A86D00" stroke-width="12" stroke-linecap="round"/>
  <path d="M426 244H520" stroke="#006D70" stroke-width="12" stroke-linecap="round"/>
  <rect x="590" y="336" width="196" height="180" rx="18" fill="#FBE7E2"/>
  <path d="M626 386H734" stroke="#8F2D2D" stroke-width="14" stroke-linecap="round"/>
  <path d="M626 428H742" stroke="#775A55" stroke-width="12" stroke-linecap="round"/>
  <path d="M626 466H696" stroke="#006D70" stroke-width="12" stroke-linecap="round"/>
  <rect x="144" y="360" width="300" height="156" rx="18" fill="#DFF6EF"/>
  <path d="M184 412H286" stroke="#006D70" stroke-width="14" stroke-linecap="round"/>
  <path d="M184 454H384" stroke="#44655E" stroke-width="12" stroke-linecap="round"/>
  <circle cx="424" cy="398" r="22" fill="#006D70"/>
  <path d="M356 244C398 268 418 300 424 376" stroke="#78F4E4" stroke-width="9" stroke-linecap="round" stroke-dasharray="15 16"/>
  <path d="M620 214C683 238 716 279 704 342" stroke="#FFB14A" stroke-width="9" stroke-linecap="round" stroke-dasharray="15 16"/>
  <circle cx="356" cy="244" r="16" fill="#78F4E4"/>
  <circle cx="620" cy="214" r="16" fill="#FFB14A"/>
  <circle cx="704" cy="342" r="16" fill="#FFB14A"/>
</svg>
