<svg xmlns="http://www.w3.org/2000/svg" width="900" height="640" fill="none" viewBox="0 0 900 640"><title>Systems routing illustration</title><rect width="900" height="640" fill="#071311" rx="28"/><rect width="214" height="144" x="104" y="102" fill="#F7FFFB" rx="18"/><rect width="142" height="16" x="140" y="150" fill="#006D70" rx="8"/><rect width="104" height="12" x="140" y="190" fill="#5D756F" rx="6"/><rect width="214" height="144" x="586" y="102" fill="#FFF3D5" rx="18"/><rect width="142" height="16" x="622" y="150" fill="#7B5300" rx="8"/><rect width="104" height="12" x="622" y="190" fill="#9A8054" rx="6"/><rect width="214" height="144" x="104" y="394" fill="#FBE7E2" rx="18"/><rect width="142" height="16" x="140" y="442" fill="#8F2D2D" rx="8"/><rect width="104" height="12" x="140" y="482" fill="#7F615D" rx="6"/><rect width="214" height="144" x="586" y="394" fill="#DFF6EF" rx="18"/><rect width="142" height="16" x="622" y="442" fill="#006D70" rx="8"/><rect width="104" height="12" x="622" y="482" fill="#5D756F" rx="6"/><circle cx="450" cy="320" r="82" fill="#102C28" stroke="#78F4E4" stroke-width="6"/><path stroke="#78F4E4" stroke-linecap="round" stroke-width="16" d="M410 320H490"/><path stroke="#FFB14A" stroke-linecap="round" stroke-width="16" d="M450 280V360"/><path stroke="#78F4E4" stroke-dasharray="14 16" stroke-linecap="round" stroke-width="9" d="M318 174C380 174 420 214 438 246"/><path stroke="#FFB14A" stroke-dasharray="14 16" stroke-linecap="round" stroke-width="9" d="M586 174C524 174 484 214 466 246"/><path stroke="#FF9B86" stroke-dasharray="14 16" stroke-linecap="round" stroke-width="9" d="M318 466C380 466 420 426 438 394"/><path stroke="#B5D7CF" stroke-dasharray="14 16" stroke-linecap="round" stroke-width="9" d="M586 466C524 466 484 426 466 394"/></svg>