<svg width="900" height="640" viewBox="0 0 900 640" fill="none" xmlns="http://www.w3.org/2000/svg">
  <title>Systems routing illustration</title>
  <rect width="900" height="640" rx="28" fill="#071311"/>
  <rect x="104" y="102" width="214" height="144" rx="18" fill="#F7FFFB"/>
  <rect x="140" y="150" width="142" height="16" rx="8" fill="#006D70"/>
  <rect x="140" y="190" width="104" height="12" rx="6" fill="#5D756F"/>
  <rect x="586" y="102" width="214" height="144" rx="18" fill="#FFF3D5"/>
  <rect x="622" y="150" width="142" height="16" rx="8" fill="#7B5300"/>
  <rect x="622" y="190" width="104" height="12" rx="6" fill="#9A8054"/>
  <rect x="104" y="394" width="214" height="144" rx="18" fill="#FBE7E2"/>
  <rect x="140" y="442" width="142" height="16" rx="8" fill="#8F2D2D"/>
  <rect x="140" y="482" width="104" height="12" rx="6" fill="#7F615D"/>
  <rect x="586" y="394" width="214" height="144" rx="18" fill="#DFF6EF"/>
  <rect x="622" y="442" width="142" height="16" rx="8" fill="#006D70"/>
  <rect x="622" y="482" width="104" height="12" rx="6" fill="#5D756F"/>
  <circle cx="450" cy="320" r="82" fill="#102C28" stroke="#78F4E4" stroke-width="6"/>
  <path d="M410 320H490" stroke="#78F4E4" stroke-width="16" stroke-linecap="round"/>
  <path d="M450 280V360" stroke="#FFB14A" stroke-width="16" stroke-linecap="round"/>
  <path d="M318 174C380 174 420 214 438 246" stroke="#78F4E4" stroke-width="9" stroke-linecap="round" stroke-dasharray="14 16"/>
  <path d="M586 174C524 174 484 214 466 246" stroke="#FFB14A" stroke-width="9" stroke-linecap="round" stroke-dasharray="14 16"/>
  <path d="M318 466C380 466 420 426 438 394" stroke="#FF9B86" stroke-width="9" stroke-linecap="round" stroke-dasharray="14 16"/>
  <path d="M586 466C524 466 484 426 466 394" stroke="#B5D7CF" stroke-width="9" stroke-linecap="round" stroke-dasharray="14 16"/>
</svg>
