<svg width="180" height="180" viewBox="0 0 180 180" fill="none" xmlns="http://www.w3.org/2000/svg">
  <!-- Neural Brain Logo for csbrain - David Ortiz AI Automation Studio -->
  <g transform="translate(90, 85)">
    <!-- Brain outline connections -->
    <!-- Top arc -->
    <line x1="-45" y1="-30" x2="-20" y2="-45" stroke="#0D9488" stroke-width="5" stroke-linecap="round"/>
    <line x1="-20" y1="-45" x2="15" y2="-45" stroke="#0D9488" stroke-width="5" stroke-linecap="round"/>
    <line x1="15" y1="-45" x2="40" y2="-30" stroke="#0D9488" stroke-width="5" stroke-linecap="round"/>

    <!-- Right side -->
    <line x1="40" y1="-30" x2="50" y2="0" stroke="#0D9488" stroke-width="5" stroke-linecap="round"/>
    <line x1="50" y1="0" x2="40" y2="25" stroke="#0D9488" stroke-width="5" stroke-linecap="round"/>

    <!-- Bottom -->
    <line x1="40" y1="25" x2="10" y2="35" stroke="#0D9488" stroke-width="5" stroke-linecap="round"/>
    <line x1="10" y1="35" x2="-25" y2="25" stroke="#0D9488" stroke-width="5" stroke-linecap="round"/>

    <!-- Left side -->
    <line x1="-25" y1="25" x2="-45" y2="0" stroke="#0D9488" stroke-width="5" stroke-linecap="round"/>
    <line x1="-45" y1="0" x2="-45" y2="-30" stroke="#0D9488" stroke-width="5" stroke-linecap="round"/>

    <!-- Internal connections -->
    <line x1="-20" y1="-45" x2="-20" y2="-10" stroke="#0D9488" stroke-width="5" stroke-linecap="round"/>
    <line x1="15" y1="-45" x2="15" y2="-10" stroke="#0D9488" stroke-width="5" stroke-linecap="round"/>
    <line x1="-45" y1="0" x2="-20" y2="-10" stroke="#0D9488" stroke-width="5" stroke-linecap="round"/>
    <line x1="-20" y1="-10" x2="15" y2="-10" stroke="#0D9488" stroke-width="5" stroke-linecap="round"/>
    <line x1="15" y1="-10" x2="50" y2="0" stroke="#0D9488" stroke-width="5" stroke-linecap="round"/>
    <line x1="-20" y1="-10" x2="-25" y2="25" stroke="#0D9488" stroke-width="5" stroke-linecap="round"/>
    <line x1="15" y1="-10" x2="40" y2="25" stroke="#0D9488" stroke-width="5" stroke-linecap="round"/>

    <!-- Brain stem -->
    <line x1="10" y1="35" x2="25" y2="55" stroke="#0D9488" stroke-width="5" stroke-linecap="round"/>
    <line x1="25" y1="55" x2="35" y2="70" stroke="#0D9488" stroke-width="5" stroke-linecap="round"/>

    <!-- Node circles -->
    <circle cx="-45" cy="-30" r="10" fill="#0D9488"/>
    <circle cx="-20" cy="-45" r="10" fill="#0D9488"/>
    <circle cx="15" cy="-45" r="10" fill="#0D9488"/>
    <circle cx="40" cy="-30" r="10" fill="#0D9488"/>
    <circle cx="50" cy="0" r="10" fill="#0D9488"/>
    <circle cx="40" cy="25" r="10" fill="#0D9488"/>
    <circle cx="10" cy="35" r="8" fill="#0D9488"/>
    <circle cx="-25" cy="25" r="10" fill="#0D9488"/>
    <circle cx="-45" cy="0" r="10" fill="#0D9488"/>
    <circle cx="-20" cy="-10" r="8" fill="#0D9488"/>
    <circle cx="15" cy="-10" r="8" fill="#0D9488"/>
    <circle cx="25" cy="55" r="7" fill="#0D9488"/>
    <circle cx="35" cy="70" r="6" fill="#0D9488"/>
  </g>
</svg>
