<svg xmlns="http://www.w3.org/2000/svg" width="180" height="180" fill="none" viewBox="0 0 180 180"><g transform="translate(90, 85)"><line x1="-45" x2="-20" y1="-30" y2="-45" stroke="#0D9488" stroke-linecap="round" stroke-width="5"/><line x1="-20" x2="15" y1="-45" y2="-45" stroke="#0D9488" stroke-linecap="round" stroke-width="5"/><line x1="15" x2="40" y1="-45" y2="-30" stroke="#0D9488" stroke-linecap="round" stroke-width="5"/><line x1="40" x2="50" y1="-30" y2="0" stroke="#0D9488" stroke-linecap="round" stroke-width="5"/><line x1="50" x2="40" y1="0" y2="25" stroke="#0D9488" stroke-linecap="round" stroke-width="5"/><line x1="40" x2="10" y1="25" y2="35" stroke="#0D9488" stroke-linecap="round" stroke-width="5"/><line x1="10" x2="-25" y1="35" y2="25" stroke="#0D9488" stroke-linecap="round" stroke-width="5"/><line x1="-25" x2="-45" y1="25" y2="0" stroke="#0D9488" stroke-linecap="round" stroke-width="5"/><line x1="-45" x2="-45" y1="0" y2="-30" stroke="#0D9488" stroke-linecap="round" stroke-width="5"/><line x1="-20" x2="-20" y1="-45" y2="-10" stroke="#0D9488" stroke-linecap="round" stroke-width="5"/><line x1="15" x2="15" y1="-45" y2="-10" stroke="#0D9488" stroke-linecap="round" stroke-width="5"/><line x1="-45" x2="-20" y1="0" y2="-10" stroke="#0D9488" stroke-linecap="round" stroke-width="5"/><line x1="-20" x2="15" y1="-10" y2="-10" stroke="#0D9488" stroke-linecap="round" stroke-width="5"/><line x1="15" x2="50" y1="-10" y2="0" stroke="#0D9488" stroke-linecap="round" stroke-width="5"/><line x1="-20" x2="-25" y1="-10" y2="25" stroke="#0D9488" stroke-linecap="round" stroke-width="5"/><line x1="15" x2="40" y1="-10" y2="25" stroke="#0D9488" stroke-linecap="round" stroke-width="5"/><line x1="10" x2="25" y1="35" y2="55" stroke="#0D9488" stroke-linecap="round" stroke-width="5"/><line x1="25" x2="35" y1="55" y2="70" stroke="#0D9488" stroke-linecap="round" stroke-width="5"/><circle cx="-45" cy="-30" r="10" fill="#0D9488"/><circle cx="-20" cy="-45" r="10" fill="#0D9488"/><circle cx="15" cy="-45" r="10" fill="#0D9488"/><circle cx="40" cy="-30" r="10" fill="#0D9488"/><circle cx="50" cy="0" r="10" fill="#0D9488"/><circle cx="40" cy="25" r="10" fill="#0D9488"/><circle cx="10" cy="35" r="8" fill="#0D9488"/><circle cx="-25" cy="25" r="10" fill="#0D9488"/><circle cx="-45" cy="0" r="10" fill="#0D9488"/><circle cx="-20" cy="-10" r="8" fill="#0D9488"/><circle cx="15" cy="-10" r="8" fill="#0D9488"/><circle cx="25" cy="55" r="7" fill="#0D9488"/><circle cx="35" cy="70" r="6" fill="#0D9488"/></g></svg>