<svg xmlns="http://www.w3.org/2000/svg" width="400" height="400" viewBox="0 0 400 400"><defs><linearGradient id="bg-gradient" x1="0%" x2="100%" y1="0%" y2="100%"><stop offset="0%" style="stop-color:#667eea;stop-opacity:1"/><stop offset="100%" style="stop-color:#764ba2;stop-opacity:1"/></linearGradient><linearGradient id="shirt-gradient" x1="0%" x2="0%" y1="0%" y2="100%"><stop offset="0%" style="stop-color:#2d3748;stop-opacity:1"/><stop offset="100%" style="stop-color:#1a202c;stop-opacity:1"/></linearGradient></defs><circle cx="200" cy="200" r="200" fill="url(#bg-gradient)"/><circle cx="200" cy="160" r="60" fill="#f4c89c"/><path fill="#2d3748" d="M 140 140 Q 200 110, 260 140 L 255 155 Q 200 125, 145 155 Z"/><ellipse cx="180" cy="155" fill="#2d3748" rx="8" ry="10"/><ellipse cx="220" cy="155" fill="#2d3748" rx="8" ry="10"/><path fill="none" stroke="#2d3748" stroke-linecap="round" stroke-width="3" d="M 170 145 Q 180 142, 190 145"/><path fill="none" stroke="#2d3748" stroke-linecap="round" stroke-width="3" d="M 210 145 Q 220 142, 230 145"/><path fill="none" stroke="#e8b584" stroke-linecap="round" stroke-width="2" d="M 200 165 L 195 175 L 200 175"/><path fill="none" stroke="#d69873" stroke-linecap="round" stroke-width="2" d="M 185 185 Q 200 195, 215 185"/><rect width="30" height="30" x="185" y="210" fill="#f4c89c"/><path fill="url(#shirt-gradient)" d="M 120 240 Q 200 220, 280 240 L 280 400 L 120 400 Z"/><path fill="#fff" d="M 160 240 L 200 260 L 240 240 L 220 250 L 200 235 L 180 250 Z"/><path fill="#667eea" d="M 195 235 L 205 235 L 210 380 L 190 380 Z"/><text x="200" y="370" fill="#fff" font-family="Arial, sans-serif" font-size="18" font-weight="bold" text-anchor="middle">David Ortiz</text><text x="200" y="390" fill="#cbd5e0" font-family="Arial, sans-serif" font-size="12" text-anchor="middle">Cloud Support Engineer</text></svg>